# This file uses centimeters as units for non-parametric coordinates.

mtllib transporter.mtl
g default
v 0.770390 -0.003209 -0.559721
v 0.294263 -0.003209 -0.905648
v -0.294263 -0.003209 -0.905648
v -0.770390 -0.003209 -0.559721
v -0.952254 -0.003209 0.000000
v -0.770390 -0.003209 0.559721
v -0.294263 -0.003209 0.905648
v 0.294263 -0.003209 0.905648
v 0.770390 -0.003209 0.559721
v 0.952254 -0.003209 -0.000000
v 0.770390 1.996791 -0.559721
v 0.294263 1.996791 -0.905648
v -0.294263 1.996791 -0.905648
v -0.770390 1.996791 -0.559721
v -0.952254 1.996791 0.000000
v -0.770390 1.996791 0.559721
v -0.294263 1.996791 0.905648
v 0.294263 1.996791 0.905648
v 0.770390 1.996791 0.559721
v 0.952254 1.996791 -0.000000
v 0.294263 0.996791 0.905648
v 0.000000 1.996791 0.951057
v 0.559017 -0.003209 0.769421
v 0.770390 0.996791 0.559721
v 0.559017 1.996791 0.769421
v 0.904508 -0.003209 0.293893
v 0.952254 0.996791 -0.000000
v 0.904508 1.996791 0.293893
v 0.904509 -0.003209 -0.293893
v 0.904509 1.996791 -0.293893
v 0.559017 -0.003209 -0.769421
v 0.294263 0.996791 -0.905648
v 0.559017 1.996791 -0.769421
v 0.770390 0.996791 -0.559721
v -0.000000 -0.003209 -0.951057
v -0.294263 0.996791 -0.905648
v -0.000000 1.996791 -0.951057
v -0.559017 -0.003209 -0.769421
v -0.770390 0.996791 -0.559721
v -0.559017 1.996791 -0.769421
v -0.904509 -0.003209 -0.293893
v -0.952254 0.996791 0.000000
v -0.904509 1.996791 -0.293893
v -0.904509 -0.003209 0.293893
v -0.770390 0.996791 0.559721
v -0.904509 1.996791 0.293893
v -0.559017 -0.003209 0.769421
v -0.294263 0.996791 0.905648
v -0.559017 1.996791 0.769421
v 0.000000 -0.003209 0.951057
v 0.559017 0.996791 -0.769421
v -0.000000 0.996791 -0.951057
v -0.559017 0.996791 -0.769421
v -0.904509 0.996791 -0.293893
v -0.904509 0.996791 0.293893
v -0.559017 0.996791 0.769421
v 0.000000 0.996791 0.951057
v 0.559017 0.996791 0.769421
v 0.904508 0.996791 0.293893
v 0.904509 0.996791 -0.293893
vt 0.179076 0.017878
vt 0.820924 0.017878
vt 0.243261 0.017878
vt 0.307446 0.017878
vt 0.371631 0.017878
vt 0.435815 0.017878
vt 0.500000 0.017878
vt 0.564185 0.017878
vt 0.628369 0.017878
vt 0.692554 0.017878
vt 0.756739 0.017878
vt 0.820924 0.983062
vt 0.179076 0.983062
vt 0.243261 0.983062
vt 0.307446 0.983062
vt 0.371631 0.983062
vt 0.435815 0.983062
vt 0.500000 0.983062
vt 0.564185 0.983062
vt 0.628369 0.983062
vt 0.692554 0.983062
vt 0.756739 0.983062
vt 0.211169 0.500470
vt 0.275353 0.500470
vt 0.339538 0.500470
vt 0.403723 0.500470
vt 0.467908 0.500470
vt 0.532092 0.500470
vt 0.596277 0.500470
vt 0.660462 0.500470
vt 0.724646 0.500470
vt 0.788831 0.500470
vt 0.211169 0.017878
vt 0.243261 0.500470
vt 0.211169 0.983062
vt 0.179076 0.500470
vt 0.820924 0.500470
vt 0.275353 0.017878
vt 0.307446 0.500470
vt 0.275353 0.983062
vt 0.339538 0.017878
vt 0.371631 0.500470
vt 0.339538 0.983062
vt 0.403723 0.017878
vt 0.435815 0.500470
vt 0.403723 0.983062
vt 0.467908 0.017878
vt 0.500000 0.500470
vt 0.467908 0.983062
vt 0.532092 0.017878
vt 0.564185 0.500470
vt 0.532092 0.983062
vt 0.596277 0.017878
vt 0.628369 0.500470
vt 0.596277 0.983062
vt 0.660462 0.017878
vt 0.692554 0.500470
vt 0.660462 0.983062
vt 0.724646 0.017878
vt 0.756739 0.500470
vt 0.724646 0.983062
vt 0.788831 0.017878
vt 0.788831 0.983062
vn 0.809017 0.000000 -0.587785
vn 0.587785 -0.000000 -0.809017
vn 0.587785 0.000000 -0.809017
vn 0.809017 0.000000 -0.587785
vn 0.309017 -0.000000 -0.951057
vn 0.309017 0.000000 -0.951057
vn 0.309017 0.000000 -0.951057
vn 0.587785 0.000000 -0.809017
vn 0.809017 0.000000 -0.587785
vn 0.000000 -0.000000 -1.000000
vn 0.000000 0.000000 -1.000000
vn -0.309017 0.000000 -0.951056
vn -0.309017 0.000000 -0.951056
vn -0.309017 -0.000000 -0.951056
vn 0.000000 0.000000 -1.000000
vn -0.587785 0.000000 -0.809017
vn -0.587785 0.000000 -0.809017
vn -0.809017 -0.000000 -0.587785
vn -0.809017 0.000000 -0.587785
vn -0.809017 0.000000 -0.587785
vn -0.587785 -0.000000 -0.809017
vn -0.951057 0.000000 -0.309017
vn -0.951057 0.000000 -0.309017
vn -1.000000 0.000000 0.000000
vn -1.000000 0.000000 0.000000
vn -1.000000 0.000000 0.000000
vn -0.951057 0.000000 -0.309017
vn -0.951057 -0.000000 0.309017
vn -0.951056 0.000000 0.309017
vn -0.809017 -0.000000 0.587785
vn -0.809017 0.000000 0.587785
vn -0.809017 0.000000 0.587785
vn -0.951057 0.000000 0.309017
vn -0.587785 0.000000 0.809017
vn -0.587785 0.000000 0.809017
vn -0.309017 0.000000 0.951057
vn -0.309017 0.000000 0.951057
vn -0.309017 0.000000 0.951057
vn -0.587785 0.000000 0.809017
vn 0.000000 0.000000 1.000000
vn 0.000000 0.000000 1.000000
vn 0.309017 0.000000 0.951056
vn 0.309017 0.000000 0.951056
vn 0.309017 0.000000 0.951056
vn 0.000000 0.000000 1.000000
vn 0.587785 0.000000 0.809017
vn 0.587785 0.000000 0.809017
vn 0.809017 0.000000 0.587785
vn 0.809017 0.000000 0.587785
vn 0.809017 0.000000 0.587785
vn 0.587785 0.000000 0.809017
vn 0.951057 0.000000 0.309017
vn 0.951057 0.000000 0.309017
vn 1.000000 0.000000 0.000000
vn 1.000000 0.000000 0.000000
vn 1.000000 0.000000 0.000000
vn 0.951057 0.000000 0.309017
vn 0.951057 0.000000 -0.309017
vn 0.951057 0.000000 -0.309017
vn 0.951057 0.000000 -0.309017
s 1
g pCylinder1
usemtl initialShadingGroup
f 1/1/1 31/33/2 51/23/3 34/36/4
f 31/33/2 2/3/5 32/34/6 51/23/3
f 51/23/3 32/34/6 12/14/7 33/35/8
f 34/36/4 51/23/3 33/35/8 11/13/9
f 2/3/5 35/38/10 52/24/11 32/34/6
f 35/38/10 3/4/12 36/39/13 52/24/11
f 52/24/11 36/39/13 13/15/14 37/40/15
f 32/34/6 52/24/11 37/40/15 12/14/7
f 3/4/12 38/41/16 53/25/17 36/39/13
f 38/41/16 4/5/18 39/42/19 53/25/17
f 53/25/17 39/42/19 14/16/20 40/43/21
f 36/39/13 53/25/17 40/43/21 13/15/14
f 4/5/18 41/44/22 54/26/23 39/42/19
f 41/44/22 5/6/24 42/45/25 54/26/23
f 54/26/23 42/45/25 15/17/26 43/46/27
f 39/42/19 54/26/23 43/46/27 14/16/20
f 5/6/24 44/47/28 55/27/29 42/45/25
f 44/47/28 6/7/30 45/48/31 55/27/29
f 55/27/29 45/48/31 16/18/32 46/49/33
f 42/45/25 55/27/29 46/49/33 15/17/26
f 6/7/30 47/50/34 56/28/35 45/48/31
f 47/50/34 7/8/36 48/51/37 56/28/35
f 56/28/35 48/51/37 17/19/38 49/52/39
f 45/48/31 56/28/35 49/52/39 16/18/32
f 7/8/36 50/53/40 57/29/41 48/51/37
f 50/53/40 8/9/42 21/54/43 57/29/41
f 57/29/41 21/54/43 18/20/44 22/55/45
f 48/51/37 57/29/41 22/55/45 17/19/38
f 8/9/42 23/56/46 58/30/47 21/54/43
f 23/56/46 9/10/48 24/57/49 58/30/47
f 58/30/47 24/57/49 19/21/50 25/58/51
f 21/54/43 58/30/47 25/58/51 18/20/44
f 9/10/48 26/59/52 59/31/53 24/57/49
f 26/59/52 10/11/54 27/60/55 59/31/53
f 59/31/53 27/60/55 20/22/56 28/61/57
f 24/57/49 59/31/53 28/61/57 19/21/50
f 10/11/54 29/62/58 60/32/59 27/60/55
f 29/62/58 1/2/1 34/37/4 60/32/59
f 60/32/59 34/37/4 11/12/9 30/63/60
f 27/60/55 60/32/59 30/63/60 20/22/56
